<svg xmlns="http://www.w3.org/2000/svg" viewBox="0 0 24 24" fill="none" stroke="currentColor" stroke-width="2.5" stroke-linecap="round" stroke-linejoin="round" class="lucide lucide-rocket">
  <defs>
    <linearGradient id="logo-gradient" x1="0%" y1="0%" x2="100%" y2="100%">
      <stop offset="0%" stop-color="#a855f7" />
      <stop offset="100%" stop-color="#8b5cf6" />
    </linearGradient>
  </defs>
  <path d="M4.5 16.5c-1.5 1.26-2.5 3.19-2.5 5.5s3 1 5.5-2.5" stroke="url(#logo-gradient)" />
  <path d="M12 12c-2.73 0-5.06 1.76-6.12 4.28L3.5 20.5l4.22-2.38C10.24 17.06 12 14.73 12 12z" stroke="url(#logo-gradient)" />
  <path d="M20.5 3.5c-2.5-2.5-6.5-1-9.5 2l-6 6c-3 3-4.5 7-2 9.5s6.5 1 9.5-2l6-6c3-3 4.5-7 2-9.5z" stroke="url(#logo-gradient)" />
  <path d="M18.5 5.5 12 12" stroke="url(#logo-gradient)" />
</svg>
